HIERARCHY
ROOT Hips
{
	OFFSET 0.000000 0.000000 0.000000
	CHANNELS 6 Xposition Yposition Zposition Zrotation Yrotation Xrotation 
	JOINT LHipJoint
	{
		OFFSET 0.000000 0.000000 0.000000
		CHANNELS 3 Zrotation Yrotation Xrotation
		JOINT LeftUpLeg
		{
			OFFSET 1.363060 -1.794630 0.839290
			CHANNELS 3 Zrotation Yrotation Xrotation
			JOINT LeftLeg
			{
				OFFSET 2.448110 -6.726130 0.000000
				CHANNELS 3 Zrotation Yrotation Xrotation
				JOINT LeftFoot
				{
					OFFSET 2.562200 -7.039590 0.000000
					CHANNELS 3 Zrotation Yrotation Xrotation
					JOINT LeftToeBase
					{
						OFFSET 0.157640 -0.433110 2.322550
						CHANNELS 3 Zrotation Yrotation Xrotation
						End Site
						{
							OFFSET 0.000000 0.000000 0.000000
						}
					}
				}
			}
		}
	}
	JOINT RHipJoint
	{
		OFFSET 0.000000 0.000000 0.000000
		CHANNELS 3 Zrotation Yrotation Xrotation
		JOINT RightUpLeg
		{
			OFFSET -1.305520 -1.794630 0.839290
			CHANNELS 3 Zrotation Yrotation Xrotation
			JOINT RightLeg
			{
				OFFSET -2.542530 -6.985550 0.000000
				CHANNELS 3 Zrotation Yrotation Xrotation
				JOINT RightFoot
				{
					OFFSET -2.568260 -7.056230 0.000000
					CHANNELS 3 Zrotation Yrotation Xrotation
					JOINT RightToeBase
					{
						OFFSET -0.164730 -0.452590 2.363150
						CHANNELS 3 Zrotation Yrotation Xrotation
						End Site
						{
							OFFSET 0.000000 0.000000 0.000000
						}
					}
				}
			}
		}
	}
	JOINT LowerBack
	{
		OFFSET 0.000000 0.000000 0.000000
		CHANNELS 3 Zrotation Yrotation Xrotation
		JOINT Spine
		{
			OFFSET 0.028270 2.035590 -0.193380
			CHANNELS 3 Zrotation Yrotation Xrotation
			JOINT Spine1
			{
				OFFSET 0.056720 2.048850 -0.042750
				CHANNELS 3 Zrotation Yrotation Xrotation
				JOINT Neck
				{
					OFFSET 0.000000 0.000000 0.000000
					CHANNELS 3 Zrotation Yrotation Xrotation
					JOINT Neck1
					{
						OFFSET -0.054170 1.746240 0.172020
						CHANNELS 3 Zrotation Yrotation Xrotation
						JOINT Head
						{
							OFFSET 0.104070 1.761360 -0.123970
							CHANNELS 3 Zrotation Yrotation Xrotation
							End Site
							{
								OFFSET 0.000000 0.000000 0.000000
							}
						}
					}
				}
				JOINT LeftShoulder
				{
					OFFSET 0.000000 0.000000 0.000000
					CHANNELS 3 Zrotation Yrotation Xrotation
					JOINT LeftArm
					{
						OFFSET 3.362410 1.200890 -0.311210
						CHANNELS 3 Zrotation Yrotation Xrotation
						JOINT LeftForeArm
						{
							OFFSET 4.983000 -0.000000 -0.000000
							CHANNELS 3 Zrotation Yrotation Xrotation
							JOINT LeftHand
							{
								OFFSET 3.483560 -0.000000 -0.000000
								CHANNELS 3 Zrotation Yrotation Xrotation
								JOINT LeftFingerBase
								{
									OFFSET 0.000000 0.000000 0.000000
									CHANNELS 3 Zrotation Yrotation Xrotation
									JOINT LeftHandIndex1
									{
										OFFSET 0.715260 -0.000000 -0.000000
										CHANNELS 3 Zrotation Yrotation Xrotation
										End Site
										{
											OFFSET 0.000000 0.000000 0.000000
										}
									}
								}
								JOINT LThumb
								{
									OFFSET 0.000000 0.000000 0.000000
									CHANNELS 3 Zrotation Yrotation Xrotation
									End Site
									{
										OFFSET 0.000000 0.000000 0.000000
									}
								}
							}
						}
					}
				}
				JOINT RightShoulder
				{
					OFFSET 0.000000 0.000000 0.000000
					CHANNELS 3 Zrotation Yrotation Xrotation
					JOINT RightArm
					{
						OFFSET -3.136600 1.374050 -0.404650
						CHANNELS 3 Zrotation Yrotation Xrotation
						JOINT RightForeArm
						{
							OFFSET -5.241900 -0.000000 -0.000000
							CHANNELS 3 Zrotation Yrotation Xrotation
							JOINT RightHand
							{
								OFFSET -3.444170 -0.000000 -0.000000
								CHANNELS 3 Zrotation Yrotation Xrotation
								JOINT RightFingerBase
								{
									OFFSET 0.000000 0.000000 0.000000
									CHANNELS 3 Zrotation Yrotation Xrotation
									JOINT RightHandIndex1
									{
										OFFSET -0.622530 -0.000000 -0.000000
										CHANNELS 3 Zrotation Yrotation Xrotation
										End Site
										{
											OFFSET 0.000000 0.000000 0.000000
										}
									}
								}
								JOINT RThumb
								{
									OFFSET 0.000000 0.000000 0.000000
									CHANNELS 3 Zrotation Yrotation Xrotation
									End Site
									{
										OFFSET 0.000000 0.000000 0.000000
									}
								}
							}
						}
					}
				}
			}
		}
	}
}
MOTION
Frames: 11
Frame Time: 0.008333
8.203454 17.198507 -37.078168 2.250161 6.110523 6.368341 -4.012960 1.519388 5.171726 -13.912190 0.699490 1.766597 2.531983 10.987726 30.467942 -2.734017 24.996199 35.219360 2.510800 9.857500 28.516500 1.160110 3.471696 -4.770792 10.570622 7.460777 -32.363397 1.833342 -12.619748 28.129379 -2.877550 -0.529426 25.472815 -0.135500 -2.372400 6.536000 0.845478 -1.657272 3.597691 1.586186 -1.800949 -4.136874 1.574420 -1.692078 -2.946346 -4.734488 -0.957768 -10.466519 5.783907 -1.105094 10.651568 1.574900 -0.397300 6.055000 3.146333 -10.566721 0.298992 -78.840183 -14.836270 32.674442 33.561069 -36.951575 -15.708085 -0.808434 0.539761 -26.303324 29.452219 -14.473669 -8.680500 -7.125000 0.000000 0.000000 1.540000 12.383600 -1.174300 -3.603728 9.257783 1.092227 91.771576 -20.219346 -32.014959 -2.714951 10.172084 -2.593139 -2.042557 -2.659478 42.193832 169.325236 71.931245 -10.263800 7.125000 0.000000 0.000000 -156.154800 -49.672700 -2.894200 
8.205629 17.243139 -36.801217 1.901766 5.607241 6.118427 -3.873448 1.328831 4.743011 -13.842908 0.788000 0.502265 3.872012 12.170466 33.806745 -3.480342 28.435160 34.833430 2.031200 8.930800 25.579200 1.290651 3.385105 -4.491168 11.287128 7.564482 -31.724356 1.745718 -12.642120 28.696395 -2.986746 0.192795 24.695057 -0.115200 -2.188000 6.025400 1.220290 -1.461028 3.874999 1.586528 -1.521913 -4.108748 1.419679 -1.524341 -2.949251 -4.673119 -0.934744 -10.565715 5.904086 -1.088982 10.646991 1.650100 -0.377800 6.093800 3.147252 -10.546534 0.269773 -79.344961 -14.231285 32.497895 33.192587 -36.762453 -15.434247 -0.816980 0.526995 -26.688891 29.175699 -14.488858 -8.591800 -7.125000 0.000000 0.000000 1.360200 12.418700 -1.036100 -3.603878 9.319793 1.081820 91.645494 -19.426011 -30.632290 -2.736684 10.280405 -2.610393 -1.990763 -2.662437 41.372888 167.949388 70.937849 -11.464900 7.125000 0.000000 0.000000 -156.429400 -50.571600 -3.400200 
8.204942 17.287772 -36.520147 1.575883 5.189717 5.857306 -3.676294 1.131657 4.368859 -13.811037 0.867031 -0.626348 4.829237 13.036607 36.877694 -3.311281 28.306112 35.023830 0.905800 6.065100 16.973400 1.391236 3.292171 -4.225702 11.993549 7.586331 -31.046064 1.640090 -12.678875 29.326910 -3.145890 1.072008 23.783814 -0.090900 -1.944400 5.352100 1.570129 -1.298526 4.063129 1.578666 -1.288783 -4.061022 1.208235 -1.380258 -2.845545 -4.612236 -0.973104 -10.619028 6.001886 -1.159943 10.591312 1.712000 -0.402300 6.070600 3.139615 -10.508993 0.253987 -79.811118 -13.641802 32.373091 32.815391 -36.567044 -15.150012 -0.845994 0.495076 -26.952915 29.033738 -14.121194 -8.348400 -7.125000 0.000000 0.000000 1.331700 12.870800 -1.001900 -3.614036 9.359782 1.089938 91.548282 -18.552478 -28.605307 -2.757392 10.525456 -2.724650 -1.887694 -2.735191 39.967057 169.979989 72.518087 -9.733200 7.125000 0.000000 0.000000 -156.100500 -49.111500 -2.556100 
8.202997 17.326110 -36.243425 1.534660 4.935672 5.536883 -3.439271 0.933647 3.967742 -14.068575 1.068147 -1.710983 5.936537 13.890912 39.940526 -4.743529 31.123551 31.944577 1.122300 6.729400 18.916100 1.460257 3.197192 -3.958792 12.346959 7.613497 -30.308033 1.522126 -12.706485 29.904843 -3.337838 1.936624 23.091783 -0.106100 -2.100700 5.784100 1.676785 -1.151932 4.354147 1.535168 -1.079145 -4.013922 0.887030 -1.245590 -2.786930 -4.449951 -1.079465 -10.619372 6.057253 -1.338836 10.552382 1.722700 -0.477200 6.055100 3.115890 -10.485929 0.241842 -80.201497 -13.113879 32.452820 32.223465 -36.201443 -14.694289 -0.862259 0.474524 -27.061449 28.668498 -13.786509 -8.048800 -7.125000 0.000000 0.000000 1.138700 13.316200 -0.846000 -3.660006 9.420217 1.092262 91.676533 -17.663489 -26.642634 -2.856568 10.860813 -2.824472 -1.773147 -2.770432 38.588246 170.941446 72.961147 -8.894100 7.125000 0.000000 0.000000 -155.906600 -48.664900 -2.301300 
8.199106 17.357581 -35.975287 1.692122 4.638188 5.325264 -3.207304 0.659948 3.611373 -14.549425 1.213863 -2.919715 6.466240 14.519017 42.973248 -3.385656 26.520585 33.051887 0.298300 3.512000 9.707700 1.500687 3.136884 -3.731741 12.514237 7.522224 -29.615188 1.413940 -12.704360 30.382405 -3.556078 2.795116 22.482886 -0.078200 -1.803400 4.962700 1.432151 -0.961681 4.522278 1.496853 -0.845735 -3.955972 0.840004 -1.086955 -2.625897 -4.573417 -1.262885 -10.671033 6.186933 -1.577125 10.508320 1.828900 -0.589800 6.040600 3.080533 -10.445612 0.227576 -80.701681 -12.595084 32.665062 31.639677 -35.860734 -14.260504 -0.878939 0.474258 -27.037099 28.525971 -13.667137 -7.947500 -7.125000 0.000000 0.000000 1.064800 13.462700 -0.787800 -3.693195 9.467027 1.101893 91.620288 -16.440859 -25.992218 -2.876887 10.862017 -2.864331 -1.746879 -2.767560 38.415331 170.757306 72.969774 -9.078200 7.125000 0.000000 0.000000 -155.982600 -48.649600 -2.283700 
8.191324 17.384933 -35.712070 1.624167 4.228599 5.239904 -2.978564 0.390944 3.234792 -14.775928 1.343358 -4.405655 7.014010 15.122180 46.045881 -3.108017 23.205578 31.418664 0.099200 2.030600 5.590400 1.549864 3.079131 -3.506507 12.919163 7.513013 -28.966489 1.335608 -12.675047 30.751656 -3.706626 3.471215 21.806614 -0.037600 -1.252100 3.442700 1.290368 -0.755253 4.585126 1.505985 -0.600306 -3.923824 1.023313 -0.917078 -2.569054 -4.823203 -1.390386 -10.570165 6.304862 -1.725257 10.438437 1.940500 -0.667200 5.970200 3.061754 -10.401370 0.203391 -81.332834 -11.865069 32.923579 31.084428 -35.565852 -13.858364 -0.914539 0.468500 -27.011796 28.614045 -13.411931 -7.856700 -7.125000 0.000000 0.000000 1.172600 13.720300 -0.861200 -3.660130 9.502517 1.110372 91.213570 -15.199718 -25.231296 -2.847137 10.757543 -2.888460 -1.749190 -2.779143 38.480238 170.428276 72.776935 -9.385100 7.125000 0.000000 0.000000 -156.041900 -48.847500 -2.399900 
8.182054 17.421669 -35.445991 1.236598 3.922196 5.166627 -2.765306 0.153223 2.855642 -14.549362 1.339633 -6.103981 7.549586 15.697851 49.030898 -2.695886 19.711211 29.949601 0.003100 -0.361400 -0.993000 1.650334 3.009432 -3.263729 13.556030 7.652225 -28.227977 1.309062 -12.590318 30.961411 -3.839202 4.107993 21.032846 -0.059000 -1.567200 4.311000 1.580440 -0.572780 4.567900 1.523764 -0.362093 -3.900053 0.921204 -0.761722 -2.513924 -4.620509 -1.400595 -10.458472 6.273058 -1.777623 10.471742 1.863100 -0.683800 5.949800 3.057284 -10.367786 0.175084 -81.848765 -11.282303 33.209729 30.051237 -34.874880 -13.115464 -0.974583 0.465799 -26.797722 28.624401 -12.843203 -7.586100 -7.125000 0.000000 0.000000 1.273800 14.326100 -0.919200 -3.610813 9.550616 1.105544 90.980722 -14.078745 -23.971429 -2.884876 10.834452 -2.930779 -1.725989 -2.786712 38.134055 169.872706 72.648070 -9.902600 7.125000 0.000000 0.000000 -156.207700 -48.974000 -2.459000 
8.174157 17.465844 -35.178540 1.014516 3.692403 5.070605 -2.571857 -0.085783 2.465936 -14.430310 1.345363 -7.883496 8.078163 16.255389 51.820469 -2.235044 16.534928 28.746809 0.069100 -1.695900 -4.666000 1.785771 2.935450 -2.990801 13.988807 7.612149 -27.398012 1.342461 -12.402720 30.902273 -4.023752 4.760303 20.472532 -0.099700 -2.036300 5.605900 1.743322 -0.374375 4.544115 1.498766 -0.102317 -3.870112 0.636822 -0.596670 -2.429027 -4.337233 -1.444138 -10.369121 6.312613 -1.893460 10.561564 1.830000 -0.722100 5.973600 3.015351 -10.341955 0.152747 -82.179958 -10.815709 33.623237 28.721285 -33.894673 -12.166523 -1.101228 0.412626 -26.279991 28.835374 -11.169178 -6.781400 -7.125000 0.000000 0.000000 1.678400 16.171300 -1.145100 -3.622567 9.613156 1.090953 91.077370 -12.986190 -22.012156 -3.036083 11.175985 -3.005487 -1.637810 -2.793137 36.872901 169.147445 72.505923 -10.578900 7.125000 0.000000 0.000000 -156.446000 -49.082300 -2.497500 
8.164544 17.517228 -34.918527 1.037850 3.416130 5.127917 -2.421683 -0.354229 2.076368 -14.530637 1.363356 -9.838792 8.520811 16.760953 54.257919 -2.000168 13.886193 26.718199 0.147300 -2.473300 -6.815700 1.918223 2.881298 -2.717944 14.185560 7.416097 -26.656302 1.412183 -12.151261 30.609530 -4.155286 5.122174 20.130358 -0.071000 -1.719200 4.730300 1.526839 -0.212021 4.530325 1.482087 0.082105 -3.881541 0.644123 -0.455041 -2.549028 -4.431408 -1.476844 -10.149056 6.467436 -1.945918 10.634356 1.951400 -0.744000 5.979700 2.955840 -10.322086 0.121592 -82.576944 -10.022261 33.951597 27.528980 -33.035698 -11.384386 -1.273449 0.372019 -25.739048 29.863036 -9.670573 -6.270000 -7.125000 0.000000 0.000000 2.654900 17.691600 -1.724400 -3.635881 9.687818 1.056616 90.968129 -11.994017 -18.333074 -3.386219 11.911573 -3.130112 -1.464219 -2.834833 34.053743 167.922393 71.750055 -11.681800 7.125000 0.000000 0.000000 -156.726600 -49.752800 -2.865400 
8.154588 17.575136 -34.654623 0.749372 2.961166 5.187697 -2.281831 -0.569326 1.727109 -14.229684 1.441914 -11.721408 8.796764 17.149076 56.267571 -1.878772 11.118896 23.087960 0.268400 -3.332400 -9.205500 2.056962 2.801796 -2.451074 14.721263 7.388574 -25.858171 1.484035 -11.920105 30.340838 -4.247513 5.457342 19.433724 -0.026600 -1.053900 2.897000 1.588974 -0.020804 4.436156 1.508958 0.310495 -3.890475 0.777498 -0.296304 -2.615415 -4.579538 -1.470826 -9.997268 6.522875 -1.922078 10.770423 2.014100 -0.737100 6.032500 2.918413 -10.279519 0.074918 -83.132453 -9.084041 34.107583 26.374460 -32.207460 -10.669167 -1.333900 0.433844 -25.005981 30.330298 -9.793649 -6.514100 -7.125000 0.000000 0.000000 2.989300 17.398900 -1.961300 -3.569392 9.733323 1.039495 90.430713 -10.844098 -16.345695 -3.541524 12.189945 -3.248710 -1.397538 -2.892153 32.661723 168.510263 72.709333 -11.217000 7.125000 0.000000 0.000000 -156.745700 -48.894600 -2.350000 
8.153558 17.635791 -34.381792 0.366887 2.379674 5.097511 -2.195916 -0.698764 1.421342 -13.808621 1.711199 -13.308680 9.360300 17.532950 57.677956 -2.089903 11.754805 22.707875 0.006900 -0.538100 -1.478700 2.219368 2.669897 -2.160666 15.286131 7.536952 -24.845020 1.546881 -11.708810 30.141788 -4.433975 6.107669 18.572793 -0.034500 -1.199500 3.297900 1.863332 0.306626 4.387993 1.507665 0.737778 -3.868739 0.707939 -0.047760 -2.615612 -4.609606 -1.645840 -9.828846 6.467340 -2.153220 10.843039 1.980900 -0.857200 6.044400 2.868860 -10.236152 0.044327 -83.569131 -8.190310 34.844277 25.107687 -31.218449 -9.835331 -1.259410 0.528503 -24.438388 29.179021 -10.765021 -6.771300 -7.125000 0.000000 0.000000 2.025000 16.392500 -1.372000 -3.519166 9.763786 1.040389 90.069120 -9.673586 -14.797440 -3.737322 12.527676 -3.451337 -1.256039 -2.993420 31.660677 174.222567 73.769523 -6.026100 7.125000 0.000000 0.000000 -155.135100 -47.814600 -1.834200 
